<svg width="217" height="102" fill="none" xmlns="http://www.w3.org/2000/svg"><path d="M113.012 71.97c.302-2.513.455-5.286.455-8.317V32.522h-17.01v9.666c-.101.815-.16 1.67-.16 2.582v28.137c-.321 1.783-1.043 3.486-2.167 5.108-1.123 1.624-2.47 3.183-4.038 4.68a57.702 57.702 0 0 1-5.162 4.36 819.726 819.726 0 0 1-5.483 4.093h21.503c2.675-1.962 4.832-3.931 6.472-5.911 1.64-1.98 2.906-4.056 3.798-6.231.891-2.175 1.489-4.522 1.792-7.036z" fill="#F4F2ED"/><path d="M124.351 32.522v11.797c-.003.155-.025.294-.025.451v28.137c-.321 1.783-1.043 3.486-2.167 5.108-1.123 1.624-2.469 3.183-4.038 4.68a57.726 57.726 0 0 1-5.162 4.36 835.394 835.394 0 0 1-5.483 4.093h21.504c2.674-1.962 4.831-3.931 6.472-5.911 1.639-1.98 2.906-4.056 3.798-6.231.89-2.175 1.488-4.52 1.791-7.035.303-2.514.455-5.286.455-8.318v-31.13l-17.145-.001zM164.776 32.522c-2.78 5.419-5.562 10.838-8.357 16.26h17.172v7.703l-25.837.053-.045 5.58h-.062v10.79h42.472V32.521h-25.343zM37.428 23.215l-8.464 8.465 8.465 8.465 8.464-8.465-8.465-8.465zM55.549 23.215l-8.465 8.465 8.465 8.465 8.465-8.465-8.465-8.465zM132.644 10.655l-8.465 8.465 8.465 8.465 8.465-8.465-8.465-8.465zM82.388 68.734c1.105-1.426 1.943-3.173 2.514-5.242.392-1.462.589-3.084.589-4.867 0-.677-.036-1.39-.107-2.14V32.522H68.918v9.695c-.003.014-.008.025-.01.04v14.228H35.154a8781.991 8781.991 0 0 1-8.44 16.422l6.82.009v-.01h40.242c1.64 0 3.174-.32 4.6-.963 1.569-.712 2.906-1.782 4.012-3.209z" fill="#F4F2ED"/></svg>